<?xml version="1.0" encoding="UTF-8"?>
<svg width="75px" height="74px" viewBox="0 0 75 74" version="1.1" xmlns="http://www.w3.org/2000/svg" xmlns:xlink="http://www.w3.org/1999/xlink">
    <title>Combined Shape Copy 46</title>
    <g id="Logo" stroke="none" stroke-width="1" fill="none" fill-rule="evenodd">
        <g id="Artboard" transform="translate(-1004.000000, -493.000000)" fill="#404040" stroke="#FFFFFF">
            <path d="M1049.055,494 L1056.46,496.32 L1056.251,503.857 L1061.667,507.811 L1068.734,505.302 L1073.3,511.607 L1068.698,517.558 L1070.806,523.928 L1078,526.051 L1078,533.838 L1070.806,535.959 L1068.785,542.327 L1073.343,548.274 L1068.756,554.569 L1061.677,552.042 L1056.257,555.959 L1056.463,563.424 L1049.056,565.659 L1044.812,559.214 L1038.115,559.214 L1033.872,565.659 L1026.465,563.457 L1026.672,555.976 L1021.253,552.051 L1014.178,554.573 L1009.596,548.276 L1014.166,542.328 L1012.158,535.959 L1005,533.838 L1005,526.051 L1012.158,523.931 L1014.223,517.562 L1009.625,511.616 L1014.192,505.32 L1021.26,507.846 L1026.676,503.929 L1026.467,496.463 L1033.873,494 L1038.115,500.214 L1044.812,500.214 L1049.055,494 Z M1051.72042,512.534048 C1049.4663,512.358308 1047.41119,513.398748 1045.68239,515.127543 C1043.35594,517.453994 1043.1394,521.233317 1044.17126,524.016 L1044.17126,524.016 L1035.72172,532.465545 C1032.93329,531.439432 1029.17975,531.664518 1026.86767,533.976601 C1024.28645,536.557821 1023.63236,540.259726 1025.29731,543.294298 L1025.29731,543.294298 L1029.0467,537.486955 C1029.88466,536.256102 1031.55975,535.933264 1032.78698,536.765888 L1032.78698,536.765888 L1034.60683,538.001489 C1035.83406,538.834113 1036.14868,540.506868 1035.31073,541.737721 L1035.31073,541.737721 L1031.53706,547.279431 C1033.79214,547.454212 1036.06277,546.629294 1037.79156,544.900499 C1040.11706,542.575006 1040.5844,539.04649 1039.55159,536.264764 L1039.55159,536.264764 L1039.56308,536.253271 L1048.00209,527.814261 C1050.79052,528.840374 1054.2942,528.365436 1056.60725,526.052395 C1059.18751,523.472132 1059.70713,519.635765 1058.04314,516.602147 L1058.04314,516.602147 L1054.17358,522.289332 C1053.33563,523.520184 1051.6653,523.847791 1050.43807,523.015167 L1050.43807,523.015167 L1048.62395,521.785287 C1047.39576,520.95171 1047.09068,519.288491 1047.92863,518.057638 L1047.92863,518.057638 Z" id="Combined-Shape-Copy-46"></path>
        </g>
    </g>
</svg>